<?xml version="1.0" encoding="UTF-8"?>
<svg version="1.1" xmlns="http://www.w3.org/2000/svg" width="512" height="512">
<path d="M0 0 C14.6586446 8.8300883 18.66790526 42.44577514 22.63088989 58.32925415 C29.60000809 86.83323928 29.43374453 115.44358422 28.98489225 144.6168584 C28.8603802 152.94438592 28.84821734 161.27127011 28.83776677 169.59958891 C28.81605679 184.44800234 28.70824283 199.29437928 28.54370117 214.1418457 C28.38496407 228.47848736 28.27975879 242.81414501 28.23608398 257.15161133 C28.23198878 258.49020767 28.23198878 258.49020767 28.22781085 259.85584637 C28.21695385 263.44539904 28.2062297 267.03495207 28.1957359 270.62450583 C28.15163598 285.27049437 28.06933565 299.91630498 27.97935987 314.5620749 C27.95901229 317.87418635 27.93992646 321.18630132 27.92190051 324.4984262 C27.87392021 333.1566541 27.81292138 341.81448922 27.71538126 350.47231581 C27.67522738 354.04067211 27.64073318 357.60880169 27.62315369 361.17734718 C27.60367462 365.04995789 27.55317326 368.92181762 27.49949646 372.79411316 C27.4975331 374.46621039 27.4975331 374.46621039 27.49553007 376.17208737 C27.28400494 387.43683951 24.03635082 397.27618146 15.890625 405.30078125 C4.37028559 414.64061478 -8.02795059 415.75686468 -22.42480469 415.64135742 C-23.92409244 415.64050916 -25.42338143 415.64099017 -26.92266846 415.64268494 C-30.95499899 415.64353856 -34.98705666 415.62601669 -39.0193243 415.60496306 C-43.24734517 415.58608947 -47.47537368 415.58443747 -51.70343018 415.58088684 C-59.69293248 415.57159753 -67.68231024 415.54702636 -75.67175794 415.51683837 C-84.77462654 415.48319685 -93.87750139 415.46678394 -102.98041677 415.45175207 C-121.69013987 415.42047369 -140.39974739 415.36777442 -159.109375 415.30078125 C-156.40685108 422.77704857 -153.70341358 430.25298463 -150.99881935 437.72850323 C-149.74290668 441.19994429 -148.48730524 444.67149725 -147.23242188 448.14331055 C-146.02067138 451.49575444 -144.80809447 454.84789835 -143.59495163 458.19983864 C-143.13298669 459.47670729 -142.6713162 460.75368251 -142.20994949 462.03076744 C-141.56214015 463.82377472 -140.91317276 465.61636346 -140.26416016 467.40893555 C-139.89553864 468.42819626 -139.52691711 469.44745697 -139.14712524 470.49760437 C-138.46451075 472.34148653 -137.74109815 474.17085895 -136.97470093 475.98152161 C-136.109375 478.30078125 -136.109375 478.30078125 -136.109375 481.30078125 C-135.21734375 481.26597656 -134.3253125 481.23117187 -133.40625 481.1953125 C-132.23578125 481.16824219 -131.0653125 481.14117187 -129.859375 481.11328125 C-128.69921875 481.07847656 -127.5390625 481.04367187 -126.34375 481.0078125 C-122.84330676 481.32488163 -121.52327698 481.79470163 -119.109375 484.30078125 C-118.00564122 488.27422286 -117.69393917 490.39077897 -119.421875 494.17578125 C-121.109375 496.30078125 -121.109375 496.30078125 -123.109375 497.30078125 C-125.87151917 497.40316207 -128.60870704 497.44415548 -131.37130737 497.44122314 C-132.23590706 497.44419427 -133.10050675 497.44716539 -133.99130642 497.45022655 C-136.9055095 497.45893898 -139.81967163 497.46042393 -142.73388672 497.46191406 C-144.81633594 497.46654041 -146.89878431 497.47156481 -148.98123169 497.47695923 C-154.65062219 497.49010219 -160.32000084 497.49653178 -165.9894042 497.50096989 C-169.52825805 497.50389731 -173.06710863 497.50800146 -176.60596085 497.51247406 C-187.66911552 497.52615344 -198.73226275 497.53581817 -209.7954253 497.53967595 C-222.58330651 497.54415917 -235.37108096 497.56171748 -248.15892971 497.59067655 C-258.03241378 497.61226279 -267.90586776 497.62237858 -277.7793752 497.62371707 C-283.6816417 497.62476721 -289.58380791 497.63071948 -295.48604965 497.64853668 C-301.03622833 497.66496475 -306.58623076 497.66719854 -312.13642502 497.65839767 C-314.17624889 497.65762449 -316.21608203 497.66200679 -318.25588226 497.67185593 C-321.0352924 497.68449175 -323.81407037 497.67874439 -326.59347534 497.66827393 C-327.81127349 497.68035853 -327.81127349 497.68035853 -329.05367362 497.69268727 C-332.35289278 497.66351252 -334.69026358 497.53813233 -337.59254646 495.89451218 C-339.87941933 493.49169609 -340.1000262 491.53841123 -340.30859375 488.30859375 C-340.109375 486.30078125 -340.109375 486.30078125 -338.484375 483.30078125 C-333.25561764 480.20225837 -328.04255871 480.90986871 -322.109375 481.30078125 C-322.02469971 480.53596436 -321.94002441 479.77114746 -321.8527832 478.9831543 C-320.82841436 473.90908034 -319.02390339 469.22440603 -317.21484375 464.3828125 C-316.631903 462.80327034 -316.631903 462.80327034 -316.03718567 461.19181824 C-314.79540246 457.83043607 -313.54630359 454.47182816 -312.296875 451.11328125 C-311.46760422 448.87322996 -310.63882307 446.63299735 -309.81054688 444.39257812 C-307.96729382 439.40781877 -306.11931315 434.42484039 -304.26701355 429.44343567 C-302.53251789 424.73478076 -300.82187335 420.01747343 -299.109375 415.30078125 C-299.88168079 415.30354663 -300.65398659 415.30631201 -301.44969559 415.30916119 C-320.28065616 415.37554411 -339.11159323 415.42512158 -357.94264603 415.45621777 C-367.04937199 415.47165708 -376.15601963 415.49269019 -385.26269531 415.52709961 C-393.20423206 415.55709215 -401.14571206 415.57637757 -409.08730388 415.58304673 C-413.28855211 415.58694237 -417.48963805 415.59603577 -421.69083405 415.61797142 C-425.65363699 415.63849266 -429.61621238 415.64458383 -433.57906342 415.64010429 C-435.02533713 415.64092256 -436.47161928 415.64679446 -437.91784668 415.65839767 C-451.40780904 415.76122424 -463.51177756 414.25672633 -474.109375 405.30078125 C-483.0068215 395.41636635 -485.56313847 386.72641905 -485.50378418 373.72662354 C-485.50987528 372.4705208 -485.51596639 371.21441806 -485.52224207 369.92025161 C-485.53858852 366.44974141 -485.53633455 362.97945916 -485.5308671 359.50892401 C-485.52819029 355.75962404 -485.54274098 352.01038395 -485.55496216 348.2611084 C-485.57599182 340.92147661 -485.58055839 333.58192385 -485.57877427 326.24226549 C-485.57746526 320.27382308 -485.58127791 314.30540526 -485.58869934 308.33696747 C-485.59079861 306.61596736 -485.59289621 304.89496724 -485.59499216 303.17396712 C-485.59603569 302.31729437 -485.59707922 301.46062161 -485.59815437 300.57798907 C-485.61704724 284.38419832 -485.61600963 268.19045288 -485.60918504 251.99665567 C-485.60361185 237.19685424 -485.62442712 222.39722603 -485.65754551 207.59746507 C-485.6913173 192.38717204 -485.70644639 177.1769619 -485.70182848 161.9666307 C-485.69958711 153.43281111 -485.70477798 144.89915156 -485.72972107 136.36536407 C-485.75077948 129.0989624 -485.75428149 121.83280851 -485.73542148 114.5663965 C-485.72629093 110.86250097 -485.72503717 107.15906685 -485.74577713 103.45520782 C-485.76806207 99.43074046 -485.75120318 95.40735103 -485.73083496 91.38287354 C-485.74335281 90.22487252 -485.75587066 89.0668715 -485.76876783 87.87377954 C-485.64687035 76.59980067 -482.08751245 67.34874389 -474.20703125 59.203125 C-462.91029319 48.95822475 -450.00826721 48.85681833 -435.50439453 48.89672852 C-433.627656 48.89101916 -431.75092093 48.88405272 -429.87419128 48.87593079 C-424.80231209 48.8580559 -419.73060641 48.85915594 -414.65870523 48.86487317 C-410.42108321 48.86797034 -406.18349426 48.86186736 -401.94587696 48.85583442 C-391.95412414 48.84181221 -381.9624569 48.84333397 -371.97070312 48.85473633 C-361.66060045 48.86624185 -351.35075717 48.85209582 -341.04068863 48.82533985 C-332.18188047 48.80321051 -323.32315391 48.79653844 -314.46432006 48.80241627 C-309.17583803 48.80579046 -303.88752266 48.80333885 -298.59906387 48.78616524 C-293.6330911 48.77074008 -288.66750488 48.77460216 -283.70154762 48.79347038 C-281.87780521 48.79716721 -280.0540344 48.79401612 -278.23031807 48.78358459 C-275.74449531 48.77044869 -273.25996672 48.78185475 -270.77420044 48.79957581 C-270.04950188 48.7899708 -269.32480332 48.78036579 -268.57814419 48.77046973 C-265.18624878 48.82036893 -263.38451613 49.09614163 -260.63032341 51.14460659 C-259.109375 53.30078125 -259.109375 53.30078125 -259.109375 56.30078125 C-254.489375 55.97078125 -249.869375 55.64078125 -245.109375 55.30078125 C-244.66207031 53.85445312 -244.21476563 52.408125 -243.75390625 50.91796875 C-243.14395923 49.00367348 -242.53324134 47.08962371 -241.921875 45.17578125 C-241.62990234 44.22445312 -241.33792969 43.273125 -241.03710938 42.29296875 C-238.8145011 35.41005279 -236.2651642 29.42072546 -229.484375 25.92578125 C-220.27195832 21.98266954 -210.8917251 24.8109385 -201.79296875 27.73046875 C-200.65585953 28.08086212 -199.51875031 28.43125549 -198.34718323 28.79226685 C-194.74239636 29.90564155 -191.14452509 31.03957956 -187.546875 32.17578125 C-183.94462497 33.30113739 -180.34105766 34.42201128 -176.7358551 35.53787231 C-174.50222269 36.23049407 -172.27043228 36.92909517 -170.0408783 37.63473511 C-163.77983288 39.59081383 -157.57233972 41.17074766 -151.109375 42.30078125 C-150.46871094 41.52734375 -149.82804687 40.75390625 -149.16796875 39.95703125 C-146.9179502 37.24391479 -144.65592257 34.54102669 -142.39160156 31.83984375 C-141.2946436 30.52316001 -140.21221138 29.19439766 -139.1328125 27.86328125 C-134.76668314 22.60000202 -130.69387712 19.49561529 -124.109375 17.30078125 C-114.41510522 16.80829692 -104.81536034 17.62831715 -95.1796875 18.61328125 C-93.80969998 18.7483968 -92.43965256 18.88290623 -91.06954956 19.0168457 C-87.5148256 19.36595165 -83.96095961 19.72311928 -80.40722656 20.08215332 C-76.76026134 20.44910359 -73.11252056 20.80817354 -69.46484375 21.16796875 C-62.34558979 21.87133075 -55.22721493 22.58323885 -48.109375 23.30078125 C-47.9753125 22.20121094 -47.84125 21.10164063 -47.703125 19.96875 C-47.00976353 15.6854183 -46.27982586 14.2334483 -43.109375 11.30078125 C-36.3053804 7.64149793 -28.81130438 5.40027167 -21.484375 3.05078125 C-19.8446875 2.50550781 -19.8446875 2.50550781 -18.171875 1.94921875 C-5.97191913 -1.9795806 -5.97191913 -1.9795806 0 0 Z " fill="#020101" transform="translate(485.109375,7.69921875)"/>
<path d="M0 0 C60.72 0 121.44 0 184 0 C181.63920339 10.03338559 179.36454815 19.61315292 176.125 29.3125 C175.42169095 31.46305622 174.71988693 33.61410517 174.01953125 35.765625 C173.67744629 36.81427734 173.33536133 37.86292969 172.98291016 38.94335938 C171.26910825 44.27291721 169.67780349 49.63782679 168.08959961 55.00585938 C166.94591856 58.8647459 165.7830089 62.71398036 164.5546875 66.546875 C164.32418701 67.2680249 164.09368652 67.9891748 163.85620117 68.73217773 C163.23561957 70.66280052 162.60832464 72.59126186 161.98046875 74.51953125 C160.9956642 78.01539122 160.48049471 81.40497975 160 85 C159.00854225 85.00546844 159.00854225 85.00546844 157.99705505 85.01104736 C151.10209303 85.05293841 144.20779257 85.12233103 137.31323242 85.20751953 C134.74201075 85.23570174 132.17070288 85.25692987 129.59936523 85.27099609 C125.89782674 85.29246258 122.1973216 85.33913565 118.49609375 85.390625 C116.77851112 85.39246796 116.77851112 85.39246796 115.02622986 85.39434814 C108.50813504 85.51329026 104.20433602 85.92745953 99 90 C96.14339339 93.56765881 95.61700579 96.26592722 95.6015625 100.78125 C95.59769531 101.87050781 95.59382813 102.95976562 95.58984375 104.08203125 C95.60144531 105.20996094 95.61304688 106.33789062 95.625 107.5 C95.61339844 108.62792969 95.60179687 109.75585938 95.58984375 110.91796875 C95.59371094 112.00722656 95.59757812 113.09648437 95.6015625 114.21875 C95.60663818 115.7027832 95.60663818 115.7027832 95.61181641 117.21679688 C96.22381469 121.6047091 98.18594582 124.20794729 101.3125 127.25 C104.3223218 129.46532748 104.3223218 129.46532748 110 130 C110 167.95 110 205.9 110 245 C73.7 245 37.4 245 0 245 C0 164.15 0 83.3 0 0 Z " fill="#D7EBFC" transform="translate(45,102)"/>
<path d="M0 0 C71.61 0 143.22 0 217 0 C217 4.95 217 9.9 217 15 C215.31390625 15.03738281 213.6278125 15.07476562 211.890625 15.11328125 C209.67706097 15.17893781 207.4635203 15.24538525 205.25 15.3125 C203.58324219 15.34633789 203.58324219 15.34633789 201.8828125 15.38085938 C200.27792969 15.4340332 200.27792969 15.4340332 198.640625 15.48828125 C197.16384277 15.52755737 197.16384277 15.52755737 195.65722656 15.56762695 C192.62607908 16.06084288 191.21153559 16.90055505 189 19 C188.33740346 21.83568858 188.71832307 24.04239226 189 27 C191.58926331 29.58926331 193.02705279 29.37398043 196.625 29.625 C198.12933594 29.73714844 198.12933594 29.73714844 199.6640625 29.8515625 C200.43492187 29.90054688 201.20578125 29.94953125 202 30 C202.02332986 44.84647949 202.0409796 59.69295657 202.05181217 74.53945065 C202.05697494 81.43247527 202.06401728 88.32548853 202.07543945 95.21850586 C202.086447 101.86446165 202.09227622 108.51040869 202.09487724 115.15637398 C202.09673201 117.69822946 202.1003536 120.24008426 202.10573006 122.78193474 C202.11293667 126.32851462 202.1139911 129.8750449 202.11352539 133.42163086 C202.11712067 134.48401978 202.12071594 135.54640869 202.12442017 136.64099121 C202.1230455 137.60157944 202.12167084 138.56216766 202.12025452 139.55186462 C202.12163721 140.81149474 202.12163721 140.81149474 202.12304783 142.09657192 C202 144 202 144 201 145 C198.61161842 145.09987036 196.25209835 145.13442407 193.86315918 145.12698364 C193.10755313 145.12854363 192.35194709 145.13010362 191.57344389 145.13171089 C189.02225049 145.13572376 186.4711158 145.13253014 183.91992188 145.12939453 C182.09875961 145.13074845 180.27759762 145.13252832 178.45643616 145.13470459 C173.49583584 145.1392801 168.53525623 145.13748888 163.57465553 145.1343255 C158.3954322 145.13180251 153.2162107 145.13413927 148.0369873 145.13571167 C139.33764323 145.13753354 130.63830763 145.13512659 121.93896484 145.13037109 C111.86595274 145.12492844 101.79296086 145.12669108 91.71994925 145.1321975 C83.08813602 145.13672812 74.4563289 145.13737943 65.82451487 145.13475883 C60.66181004 145.13319578 55.49911474 145.13300306 50.33641052 145.13629532 C45.48395777 145.1391733 40.63153124 145.13719969 35.77908134 145.13140106 C33.99278749 145.13007307 32.20649144 145.13046824 30.42019844 145.13266373 C27.99238226 145.13537371 25.56465148 145.13199599 23.13684082 145.12698364 C22.42061035 145.12921436 21.70437987 145.13144509 20.96644545 145.13374341 C16.11414986 145.11414986 16.11414986 145.11414986 15 144 C14.90431424 142.51983606 14.87811732 141.03511727 14.87974548 139.55186462 C14.87768349 138.11098228 14.87768349 138.11098228 14.87557983 136.64099121 C14.87917511 135.57860229 14.88277039 134.51621338 14.88647461 133.42163086 C14.88625557 131.75355125 14.88625557 131.75355125 14.8860321 130.05177307 C14.88673179 126.35611049 14.8945268 122.66049759 14.90234375 118.96484375 C14.90420773 116.41036507 14.90563173 113.85588603 14.90663147 111.30140686 C14.91006656 105.2523829 14.91795736 99.20338045 14.92798096 93.15436512 C14.93914317 86.26934846 14.94465282 79.38433096 14.94967639 72.49930751 C14.96014 58.3328617 14.97773877 44.16643183 15 30 C15.78575566 29.99761165 16.57151133 29.99522329 17.38107777 29.99276257 C36.48438526 29.93367287 55.58756289 29.85816169 74.690732 29.76428509 C83.92881951 29.719285 93.16686811 29.67988014 102.4050293 29.65356445 C110.45532365 29.6306184 118.50549528 29.59725862 126.55569237 29.55129844 C130.81975811 29.52732024 135.08370197 29.50862169 139.34783363 29.50238609 C143.35911691 29.4963559 147.37008814 29.47643161 151.3812561 29.44572449 C152.85546391 29.43691095 154.32971244 29.43322851 155.80394554 29.43499184 C157.81292098 29.43663647 159.82188333 29.41823021 161.83076477 29.39872742 C162.956274 29.39411845 164.08178324 29.38950949 165.24139881 29.38476086 C167.99515014 29.21465806 167.99515014 29.21465806 169.85823345 27.69382954 C171.8042453 24.8068888 171.41894491 22.3515593 171 19 C168.68747825 16.5534424 167.25776292 16.03198959 163.89970779 15.61523914 C162.67187954 15.61063018 161.44405128 15.60602121 160.17901611 15.60127258 C159.1509597 15.59130234 159.1509597 15.59130234 158.10213447 15.58113068 C155.80654528 15.56248432 153.51147657 15.56510697 151.21582031 15.56762695 C149.56992353 15.55861076 147.92403348 15.54828389 146.27815247 15.53674316 C141.80950592 15.50913016 137.34098663 15.49988282 132.87226582 15.49388909 C128.20236974 15.48451661 123.53256914 15.45831415 118.86273193 15.43388367 C110.01951701 15.39018397 101.17632057 15.36165833 92.33303046 15.33856028 C82.26535979 15.31152721 72.19778501 15.26761454 62.13018274 15.22227156 C41.42017173 15.12937558 20.71013475 15.05831627 0 15 C0 10.05 0 5.1 0 0 Z " fill="#A96950" transform="translate(155,202)"/>
<path d="M0 0 C159.06 0 318.12 0 482 0 C482 31.14979757 482 31.14979757 476.0703125 38.33984375 C475.10738281 39.13068359 475.10738281 39.13068359 474.125 39.9375 C473.48820312 40.48277344 472.85140625 41.02804687 472.1953125 41.58984375 C467.16592205 44.82046644 462.12940107 45.29195061 456.28747749 45.26006222 C455.52655979 45.26386789 454.76564208 45.26767356 453.98166627 45.27159455 C451.4292062 45.28190975 448.87696854 45.27800432 446.32449341 45.27415466 C444.47710385 45.27860709 442.6297162 45.28392114 440.78233135 45.29002339 C435.70341259 45.30421293 430.62455499 45.3058665 425.54561925 45.30542648 C420.06902502 45.3070738 414.59245605 45.32013861 409.11587524 45.33161926 C397.14086904 45.35447324 385.16588056 45.36239003 373.1908555 45.36744571 C365.71546953 45.3707017 358.24008872 45.37722351 350.76470566 45.3844471 C330.07176199 45.40401209 309.37882276 45.42049867 288.68586922 45.42332363 C288.02414566 45.42341769 287.36242211 45.42351175 286.68064633 45.42360866 C283.99898995 45.42398714 281.31733357 45.42435114 278.63567719 45.42471164 C276.61730693 45.42498336 274.59893667 45.42526004 272.58056641 45.42553711 C271.5801472 45.42566914 271.5801472 45.42566914 270.55951751 45.42580384 C249.59969547 45.42870984 228.63996561 45.45081197 207.68017578 45.48706055 C184.13193228 45.52778466 160.58373394 45.55146258 137.03544986 45.55178314 C124.56699095 45.55236827 112.09865073 45.56089603 99.63022232 45.58978081 C89.01572286 45.61425757 78.4013854 45.62160248 67.78686537 45.60653328 C62.37015129 45.59934974 56.95375733 45.60028428 51.53707886 45.62294388 C46.57880866 45.64348742 41.62110564 45.64097668 36.6628419 45.62006903 C34.8688085 45.61656533 33.07473455 45.62152127 31.28075434 45.63577347 C20.85150166 45.71329101 14.08356883 45.43763006 5.9765625 38.19140625 C5.53054687 37.65386719 5.08453125 37.11632812 4.625 36.5625 C4.16351562 36.02753906 3.70203125 35.49257813 3.2265625 34.94140625 C-3.32829492 24.56636122 0 11.59381725 0 0 Z " fill="#A69AA6" transform="translate(15,362)"/>
<path d="M0 0 C2.73101426 1.17465095 5.37414408 2.5449822 8.03320312 3.87451172 C8.03320312 80.76451172 8.03320312 157.65451172 8.03320312 236.87451172 C-23.31679688 236.87451172 -54.66679687 236.87451172 -86.96679688 236.87451172 C-86.96679688 198.92451172 -86.96679688 160.97451172 -86.96679688 121.87451172 C-83.99679687 120.88451172 -81.02679688 119.89451172 -77.96679688 118.87451172 C-72.11018482 112.87148436 -72.72175903 107.6390159 -72.65429688 99.62451172 C-72.62529297 98.49142578 -72.59628906 97.35833984 -72.56640625 96.19091797 C-72.52918189 91.30593666 -72.56689545 87.75220511 -74.61132812 83.26513672 C-79.49792554 78.30560501 -84.4672821 77.42143455 -91.20898438 77.36279297 C-91.97735626 77.34484177 -92.74572815 77.32689056 -93.53738403 77.30839539 C-95.97213383 77.25456214 -98.40669068 77.2204848 -100.84179688 77.18701172 C-102.50067774 77.15381467 -104.15953322 77.11932281 -105.81835938 77.08349609 C-109.86769869 76.99885181 -113.91698348 76.93191315 -117.96679688 76.87451172 C-116.40579004 70.40292072 -114.8040123 64.02982799 -112.59179688 57.74951172 C-110.31499376 51.09848685 -108.38573764 44.39354841 -106.57861328 37.60058594 C-105.06641918 31.97413403 -105.06641918 31.97413403 -103.96679688 30.87451172 C-101.08058042 30.67917941 -98.21225704 30.54355249 -95.32226562 30.44482422 C-93.51170046 30.37105297 -91.70115413 30.29681846 -89.890625 30.22216797 C-87.03864253 30.10958009 -84.18667224 30.00064966 -81.33422852 29.90039062 C-60.46187909 29.15083617 -44.69265182 24.43692679 -26.46679688 13.99951172 C-25.42910156 13.41298828 -24.39140625 12.82646484 -23.32226562 12.22216797 C-19.06566991 9.81027376 -14.82054639 7.40030262 -10.65429688 4.83447266 C-9.59210938 4.18510742 -8.52992188 3.53574219 -7.43554688 2.86669922 C-6.48099609 2.26970215 -5.52644531 1.67270508 -4.54296875 1.05761719 C-1.96679688 -0.12548828 -1.96679688 -0.12548828 0 0 Z " fill="#D7EBFD" transform="translate(458.966796875,110.12548828125)"/>
<path d="M0 0 C1.09183594 0.30164062 2.18367188 0.60328125 3.30859375 0.9140625 C3.96327637 1.09485352 4.61795898 1.27564453 5.29248047 1.46191406 C7.62056248 2.12348567 9.9329181 2.82715782 12.24609375 3.5390625 C13.11580811 3.80340088 13.98552246 4.06773926 14.8815918 4.34008789 C16.73959345 4.90526515 18.59708409 5.47212466 20.45410156 6.04052734 C23.27689865 6.90436313 26.10108957 7.76347533 28.92578125 8.62109375 C32.75978997 9.78555508 36.59309736 10.95227929 40.42578125 12.12109375 C45.38267191 13.6326231 50.34116944 15.13880876 55.30004883 16.64379883 C59.09653112 17.79749905 62.89128292 18.95683514 66.68603516 20.11621094 C69.166296 20.87077177 71.64915469 21.61608677 74.1328125 22.359375 C75.5664794 22.79402964 77.00007814 23.22890915 78.43359375 23.6640625 C79.65304687 24.03015625 80.8725 24.39625 82.12890625 24.7734375 C85.23557631 25.88786951 87.70869736 26.87604848 90.30859375 28.9140625 C91.90901248 32.9597562 91.03036394 36.04729777 89.74609375 40.1015625 C89.28009766 41.66970703 89.28009766 41.66970703 88.8046875 43.26953125 C87.30859375 45.9140625 87.30859375 45.9140625 84.90625 47.125 C78.64567693 48.49811158 72.36926537 49.76567307 66.07421875 50.97070312 C56.12240423 52.95735267 50.22750968 55.72414681 43.99609375 63.9765625 C40.32897611 70.79116572 41.99097396 79.58229815 43.3828125 86.87890625 C44.90613518 90.22764515 46.29545902 91.72133574 49.30859375 93.9140625 C53.24243816 94.66666639 57.1241933 94.70458809 61.12109375 94.7265625 C62.73274414 94.76426758 62.73274414 94.76426758 64.37695312 94.80273438 C67.02120146 94.86149545 69.66379863 94.89785626 72.30859375 94.9140625 C69.13113936 106.19227973 65.8863654 117.44777373 62.49609375 128.6640625 C62.19437256 129.66961182 61.89265137 130.67516113 61.58178711 131.71118164 C61.29956299 132.63922607 61.01733887 133.56727051 60.7265625 134.5234375 C60.47672607 135.34811523 60.22688965 136.17279297 59.96948242 137.02246094 C59.30859375 138.9140625 59.30859375 138.9140625 58.30859375 139.9140625 C56.95518785 140.00937413 55.59685391 140.0359497 54.24009705 140.03431702 C52.92542702 140.03637901 52.92542702 140.03637901 51.584198 140.03848267 C50.1308757 140.03308975 50.1308757 140.03308975 48.64819336 140.02758789 C47.63367599 140.02773392 46.61915863 140.02787994 45.57389832 140.0280304 C42.20289002 140.02733079 38.83193621 140.01953618 35.4609375 140.01171875 C33.13066132 140.00985474 30.80038475 140.00843076 28.47010803 140.00743103 C22.3232211 140.00360452 16.17635762 139.9937731 10.02947998 139.98272705 C3.76249509 139.97251579 -2.50449357 139.96793402 -8.77148438 139.96289062 C-21.07813533 139.95215095 -33.38476884 139.93507294 -45.69140625 139.9140625 C-45.76982247 134.31796313 -45.43732775 130.17362297 -43.62890625 124.7890625 C-43.16787811 123.38414432 -42.70694604 121.97919462 -42.24609375 120.57421875 C-41.99569336 119.82543457 -41.74529297 119.07665039 -41.48730469 118.30517578 C-40.04007708 113.95727787 -38.64762263 109.59185254 -37.25390625 105.2265625 C-36.95540771 104.29368408 -36.65690918 103.36080566 -36.34936523 102.3996582 C-34.08115973 95.26182435 -31.98901411 88.08436803 -29.95898438 80.87573242 C-27.30662282 71.48136874 -24.44645015 62.15291663 -21.58251953 52.82128906 C-20.40384913 48.97591726 -19.23286523 45.12823262 -18.06347656 41.2800293 C-17.48528875 39.37987625 -16.90523103 37.48029112 -16.32324219 35.58129883 C-14.78758745 30.56370639 -13.28804978 25.53855175 -11.8359375 20.49609375 C-11.52914062 19.44679688 -11.22234375 18.3975 -10.90625 17.31640625 C-10.31888661 15.3051316 -9.74152476 13.29090021 -9.17578125 11.2734375 C-5.80174335 -0.1852516 -5.80174335 -0.1852516 0 0 Z " fill="#FCE359" transform="translate(266.69140625,47.0859375)"/>
<path d="M0 0 C34.98 0 69.96 0 106 0 C129 62.61111111 129 62.61111111 129 67 C78.84 67 28.68 67 -23 67 C-22.28508021 61.99556147 -21.64445676 58.49250935 -19.97460938 53.9128418 C-19.55747681 52.75862228 -19.14034424 51.60440277 -18.71057129 50.41520691 C-18.25952026 49.18893082 -17.80846924 47.96265472 -17.34375 46.69921875 C-16.87619028 45.41384368 -16.40919909 44.12826168 -15.94274902 42.84248352 C-14.7195256 39.47585484 -13.48797864 36.11232913 -12.25482178 32.74932861 C-11.24727218 29.99716293 -10.24574109 27.24282593 -9.24449921 24.4883604 C-7.17778346 18.80333521 -5.10646948 13.11996824 -3.02539062 7.44018555 C-2.6575647 6.43537643 -2.28973877 5.43056732 -1.9107666 4.39530945 C-1 2 -1 2 0 0 Z " fill="#908190" transform="translate(203,422)"/>
<path d="M0 0 C4.62 0 9.24 0 14 0 C13.38334864 5.39392739 12.12077204 10.28395283 10.4375 15.4375 C10.20353516 16.16904297 9.96957031 16.90058594 9.72851562 17.65429688 C9.15732778 19.43780179 8.57936877 21.21913583 8 23 C6.97809444 23.00146656 5.95618889 23.00293312 4.9033165 23.00444412 C-19.94183325 23.04101069 -44.7868479 23.10042283 -69.63188553 23.18390274 C-81.64668253 23.22374176 -93.66141357 23.25610952 -105.67626953 23.27099609 C-116.14628447 23.28398742 -126.61615456 23.3108875 -137.08608794 23.35461307 C-142.63179852 23.3772846 -148.17733009 23.39290728 -153.72309113 23.39188385 C-158.94012114 23.3911406 -164.15675457 23.40895631 -169.37368202 23.44116783 C-171.29092667 23.44970491 -173.20821561 23.4513911 -175.12547112 23.44580269 C-177.73883938 23.43919839 -180.35093257 23.45699662 -182.96417236 23.48101807 C-183.72681971 23.47325765 -184.48946705 23.46549723 -185.27522492 23.45750165 C-188.4484806 23.50931027 -190.69170615 23.82557868 -193.46980286 25.39732361 C-195.88695375 29.50859881 -195.55607013 33.47565473 -195.51898193 38.1618042 C-195.53023381 39.72888953 -195.53023381 39.72888953 -195.541713 41.32763314 C-195.56206383 44.83939016 -195.5538727 48.35050608 -195.54589844 51.86230469 C-195.55462939 54.37518455 -195.56511348 56.88805884 -195.57722473 59.40092468 C-195.59937101 64.81662817 -195.60928461 70.23213577 -195.60811615 75.64788055 C-195.60644785 83.47808994 -195.62677199 91.30812059 -195.65247145 99.13828233 C-195.69356893 111.84201675 -195.71686953 124.54571905 -195.72900391 137.24951172 C-195.74082966 149.59036344 -195.76102108 161.93115469 -195.79248047 174.27197266 C-195.79441657 175.03260563 -195.79635267 175.79323861 -195.79834744 176.57692108 C-195.80811192 180.39277707 -195.81804105 184.20863262 -195.82805204 188.02448797 C-195.91089584 219.68296662 -195.96457178 251.34143169 -196 283 C-200.95 283 -205.9 283 -211 283 C-211.11410892 250.28555281 -211.202572 217.57116306 -211.25532665 184.85656223 C-211.26158004 180.99267202 -211.26805167 177.1287822 -211.2746582 173.26489258 C-211.27662553 172.11106585 -211.27662553 172.11106585 -211.2786326 170.9339295 C-211.3003781 158.48541821 -211.33979486 146.0370226 -211.38576398 133.5885799 C-211.43255253 120.81149345 -211.46030045 108.03446749 -211.47044247 95.25729889 C-211.4772967 87.3755982 -211.49893016 79.49422448 -211.53958233 71.61262446 C-211.56918331 65.56486369 -211.57226811 59.51738308 -211.56553841 53.46954155 C-211.56691329 50.99157576 -211.57685012 48.51359753 -211.59602737 46.03570557 C-211.62095124 42.6490068 -211.61490612 39.26370022 -211.60127258 35.87696838 C-211.61583679 34.8993193 -211.630401 33.92167021 -211.64540654 32.91439539 C-211.56232067 25.26420876 -209.31869384 19.41297492 -203.9375 13.87890625 C-203.298125 13.44449219 -202.65875 13.01007813 -202 12.5625 C-201.360625 12.11003906 -200.72125 11.65757813 -200.0625 11.19140625 C-195.1170843 8.33467938 -190.89716992 7.71176593 -185.2437439 7.7484436 C-184.46979707 7.74547346 -183.69585025 7.74250333 -182.89845049 7.73944318 C-180.30901506 7.73181368 -177.71980715 7.73829277 -175.13037109 7.74462891 C-173.27245429 7.74187861 -171.41453866 7.73819848 -169.55662537 7.73365784 C-165.55807278 7.72554928 -161.55957609 7.72337647 -157.56101608 7.72560501 C-151.24201633 7.72843662 -144.9231285 7.71409303 -138.60415649 7.69662476 C-120.63651194 7.64957937 -102.66887528 7.62564587 -84.70117188 7.61914062 C-74.77610162 7.61539554 -64.85115821 7.59741327 -54.92614233 7.56404626 C-48.64048754 7.54378134 -42.35515875 7.5414864 -36.06948447 7.55232644 C-32.16548563 7.55492589 -28.26167832 7.54096773 -24.35772896 7.52224541 C-22.5432524 7.51690464 -20.72874097 7.51845218 -18.91427803 7.52728081 C-16.44315293 7.5383379 -13.97333331 7.52504682 -11.50228882 7.50552368 C-10.41742866 7.51921067 -10.41742866 7.51921067 -9.31065214 7.53317416 C-6.1110974 7.4837514 -4.44326773 7.42878246 -2.09360695 5.15590477 C-0.88898031 2.91219567 -0.88898031 2.91219567 0 0 Z " fill="#8F808F" transform="translate(226,64)"/>
<path d="M0 0 C1.15672211 0.11890594 2.31344421 0.23781189 3.50521851 0.36032104 C4.7304422 0.49737457 5.95566589 0.6344281 7.21801758 0.77563477 C9.69850164 1.00141462 12.17939521 1.222733 14.66064453 1.43994141 C17.3426291 1.68754037 20.02450462 1.93615487 22.70629883 2.18579102 C24.14502668 2.31897086 25.58376281 2.45206141 27.02250671 2.58506775 C30.76248274 2.93105062 34.50234715 3.27822543 38.2421875 3.62567139 C42.07716152 3.9817352 45.91224278 4.33664017 49.74731445 4.69165039 C57.23765267 5.38519472 64.72787303 6.08000164 72.21801758 6.77563477 C79.03988239 31.66187982 79.03988239 31.66187982 81.65551758 41.96313477 C82.05673828 43.49357422 82.05673828 43.49357422 82.46606445 45.05493164 C82.71291992 46.02881836 82.95977539 47.00270508 83.21411133 48.00610352 C83.54173462 49.28070435 83.54173462 49.28070435 83.87597656 50.58105469 C84.21801758 52.77563477 84.21801758 52.77563477 83.21801758 55.77563477 C80.78808594 57.44213867 80.78808594 57.44213867 77.55786133 59.25219727 C76.98067352 59.57907028 76.40348572 59.9059433 75.80880737 60.24272156 C73.92927569 61.30434704 72.04272976 62.35273309 70.15551758 63.40063477 C68.86628568 64.1241008 67.57746757 64.8483047 66.2890625 65.57324219 C63.75113339 66.99994221 61.21059234 68.42182398 58.66821289 69.84057617 C55.80403923 71.44696171 52.95492513 73.07369041 50.11645508 74.72485352 C38.93903664 81.21100568 29.43688342 84.60707995 16.42895508 85.30297852 C15.68954681 85.34430405 14.95013855 85.38562958 14.18832397 85.4282074 C6.07725755 85.86438701 -2.03757525 86.1198585 -10.15698242 86.33813477 C-10.91258453 86.35931366 -11.66818665 86.38049255 -12.44668579 86.40231323 C-23.89340291 86.72169253 -35.33040268 86.91323719 -46.78198242 86.77563477 C-46.94572599 85.38381447 -47.06118807 83.98627608 -47.15698242 82.58813477 C-47.2265918 81.81083008 -47.29620117 81.03352539 -47.36791992 80.23266602 C-46.63196815 77.14657492 -45.1431444 75.74417431 -42.64364624 73.85580444 C-39.30723992 71.91996355 -35.81372662 71.29031621 -32.05151367 70.60766602 C-31.22044601 70.44191574 -30.38937836 70.27616547 -29.53312683 70.10539246 C-26.88993357 69.5824645 -24.24268115 69.08501927 -21.59448242 68.58813477 C-19.83569351 68.24409083 -18.07722554 67.89840189 -16.3190918 67.55102539 C-8.49499397 66.01604876 -0.67851999 64.51034156 7.21533203 63.37207031 C9.63114147 62.65259909 10.67269237 61.746837 12.21801758 59.77563477 C12.57948214 57.49233376 12.57948214 57.49233376 12.40551758 55.08813477 C12.37844727 54.27989258 12.35137695 53.47165039 12.32348633 52.63891602 C12.2712793 51.7165918 12.2712793 51.7165918 12.21801758 50.77563477 C9.46722874 49.85870515 7.85852845 49.66677393 5.03051758 49.71313477 C3.77239258 49.73375977 2.51426758 49.75438477 1.21801758 49.77563477 C1.46551758 48.60000977 1.46551758 48.60000977 1.71801758 47.40063477 C2.81679236 39.43451758 3.25909914 32.47713192 -1.78198242 25.77563477 C-6.49619899 20.97388633 -12.39523552 19.35625824 -18.78198242 17.77563477 C-18.78198242 12.86836535 -17.63306507 11.88941823 -14.53198242 8.21313477 C-13.74307617 7.2630957 -12.95416992 6.31305664 -12.14135742 5.33422852 C-8.07102141 0.92020519 -6.12899168 -0.69009945 0 0 Z " fill="#F3A76B" transform="translate(369.781982421875,40.224365234375)"/>
<path d="M0 0 C0 79.2 0 158.4 0 240 C-4.95 240 -9.9 240 -15 240 C-15 162.12 -15 84.24 -15 4 C-3 0 -3 0 0 0 Z " fill="#908190" transform="translate(497,107)"/>
<path d="M0 0 C34.98 0 69.96 0 106 0 C120 38 120 38 120 40 C103.74041613 37.84511539 87.77636769 34.90413219 71.75 31.4375 C61.21801685 29.16131205 50.63056286 27.24917456 40 25.5 C29.2690232 23.73278864 18.568466 21.90292953 8 19.3125 C3.16705429 18.15692643 -1.04622784 17.70860164 -6 18 C-5.5662812 16.49890232 -5.12777365 14.99918823 -4.6875 13.5 C-4.44386719 12.6646875 -4.20023438 11.829375 -3.94921875 10.96875 C-2.76574022 7.26733567 -1.36446992 3.63858645 0 0 Z " fill="#786B77" transform="translate(203,422)"/>
<path d="M0 0 C0.33 0.66 0.66 1.32 1 2 C5.62 2 10.24 2 15 2 C15.33 1.34 15.66 0.68 16 0 C16.309375 1.134375 16.61875 2.26875 16.9375 3.4375 C17.62924531 6.78775099 17.62924531 6.78775099 19 8 C20.84891946 8.23363881 22.70488031 8.41303635 24.5625 8.5625 C26.356875 8.706875 28.15125 8.85125 30 9 C30 16.26 30 23.52 30 31 C15.74016263 30.2808003 1.57393124 28.97366299 -12.6328125 27.56640625 C-15.08362765 27.32578972 -17.53446426 27.08539163 -19.98532104 26.84519958 C-25.09377734 26.34381669 -30.20200003 25.84013529 -35.31005859 25.3347168 C-41.81960123 24.69076817 -48.32964965 24.05210932 -54.83987617 23.41511631 C-59.89158276 22.92032216 -64.94303385 22.42295847 -69.99441147 21.92481804 C-72.3934405 21.68849437 -74.79254037 21.45288855 -77.19171524 21.21805 C-88.48776478 20.11087806 -99.75817962 18.97636667 -111.00048828 17.40638733 C-114.93946334 16.87271728 -118.87801502 16.49526046 -122.83984375 16.18359375 C-123.57650772 16.12220718 -124.31317169 16.06082062 -125.07215881 15.99757385 C-127.36033361 15.8073727 -129.64886424 15.62206347 -131.9375 15.4375 C-134.25105688 15.24860357 -136.56451027 15.05857978 -138.87782288 14.86671448 C-140.29908534 14.74905618 -141.72049329 14.63313522 -143.14207458 14.51939392 C-147.78258636 14.13822119 -152.38423338 13.60208447 -157 13 C-157 11.68 -157 10.36 -157 9 C-156.21424434 8.99761165 -155.42848867 8.99522329 -154.61892223 8.99276257 C-135.51561474 8.93367287 -116.41243711 8.85816169 -97.309268 8.76428509 C-88.07118049 8.719285 -78.83313189 8.67988014 -69.5949707 8.65356445 C-61.54467635 8.6306184 -53.49450472 8.59725862 -45.44430763 8.55129844 C-41.18024189 8.52732024 -36.91629803 8.50862169 -32.65216637 8.50238609 C-28.64088309 8.4963559 -24.62991186 8.47643161 -20.6187439 8.44572449 C-19.14453609 8.43691095 -17.67028756 8.43322851 -16.19605446 8.43499184 C-14.18707902 8.43663647 -12.17811667 8.41823021 -10.16923523 8.39872742 C-9.043726 8.39411845 -7.91821676 8.38950949 -6.75860119 8.38476086 C-3.99606015 8.22258824 -3.99606015 8.22258824 -2.15739155 6.64304829 C-0.65149836 4.50526247 -0.34676263 2.56604343 0 0 Z " fill="#905942" transform="translate(327,223)"/>
<path d="M0 0 C0.15557373 0.63800537 0.31114746 1.27601074 0.47143555 1.93334961 C4.21827315 17.35070528 4.21827315 17.35070528 8.5 32.625 C10.51080129 39.31360363 12.44411214 46.02005813 14.3125 52.75 C14.57933594 53.69182129 14.84617187 54.63364258 15.12109375 55.60400391 C15.36601562 56.49265137 15.6109375 57.38129883 15.86328125 58.296875 C16.08282471 59.08416992 16.30236816 59.87146484 16.52856445 60.68261719 C17.03604292 63.17717212 17.08176407 65.46109931 17 68 C11.75321216 70.03446875 6.45767483 71.89296612 1.125 73.6875 C0.45847412 73.91397217 -0.20805176 74.14044434 -0.89477539 74.3737793 C-5.76347978 76 -5.76347978 76 -8 76 C-10.12820934 69.91745797 -11.87246545 63.82659648 -13.375 57.5625 C-14.98391087 50.99053921 -16.66557024 44.45019563 -18.5 37.9375 C-20.31881749 31.47067377 -22.09213018 24.99378164 -23.8125 18.5 C-24.03164063 17.68007568 -24.25078125 16.86015137 -24.4765625 16.01538086 C-26 10.23676128 -26 10.23676128 -26 8 C-22.2318169 6.65909207 -18.46004479 5.3285821 -14.6875 4 C-13.61564453 3.6184375 -12.54378906 3.236875 -11.43945312 2.84375 C-10.41142578 2.4828125 -9.38339844 2.121875 -8.32421875 1.75 C-7.37635498 1.41484375 -6.42849121 1.0796875 -5.4519043 0.734375 C-3 0 -3 0 0 0 Z " fill="#FA626D" transform="translate(479,23)"/>
<path d="M0 0 C1.07242699 -0.00574036 1.07242699 -0.00574036 2.16651917 -0.01159668 C3.67523612 -0.01431259 5.18400042 -0.00697364 6.69262695 0.00976562 C8.9934272 0.03115259 11.29109438 0.00997392 13.59179688 -0.015625 C15.06120477 -0.01298105 16.53061072 -0.00785466 18 0 C18.68348007 -0.00809692 19.36696014 -0.01619385 20.07115173 -0.02453613 C23.55461131 0.04330746 25.51700701 0.50073931 28.50415039 2.34570312 C30.56640625 4.53125 30.56640625 4.53125 31.12890625 8.03125 C30.4675042 12.14664051 29.86964479 13.08020479 26.56640625 15.53125 C23.86445667 15.9294795 21.57726053 16.09325004 18.87890625 16.0625 C18.13938721 16.0663269 17.39986816 16.07015381 16.63793945 16.07409668 C15.07794835 16.07681271 13.51791147 16.06947292 11.95800781 16.05273438 C9.57383439 16.03131673 7.19267376 16.05254263 4.80859375 16.078125 C3.29035795 16.07548166 1.77212402 16.07035656 0.25390625 16.0625 C-0.81186646 16.07464539 -0.81186646 16.07464539 -1.89916992 16.08703613 C-5.27500632 16.02326807 -7.13978241 15.74891407 -9.8828125 13.71679688 C-12.15428244 10.51556908 -11.9802244 8.35766456 -11.43359375 4.53125 C-8.28778736 0.14271037 -5.07312721 -0.05992191 0 0 Z " fill="#030303" transform="translate(246.43359375,376.46875)"/>
<path d="M0 0 C2 1.625 2 1.625 3 4 C2.87988224 7.42335626 2.60726153 9.95416069 0.875 12.9375 C-2.22289358 14.69297303 -4.52844534 14.48723574 -8 14 C-10.5 11.9375 -10.5 11.9375 -12 9 C-12 5.19715329 -11.7968187 2.98069994 -9.375 0 C-5.88418213 -1.46981805 -3.60851044 -0.98413921 0 0 Z " fill="#060403" transform="translate(298,283)"/>
<path d="M0 0 C2 1.625 2 1.625 3 4 C2.87988224 7.42335626 2.60726153 9.95416069 0.875 12.9375 C-2.22289358 14.69297303 -4.52844534 14.48723574 -8 14 C-10.5 11.9375 -10.5 11.9375 -12 9 C-12 5.19715329 -11.7968187 2.98069994 -9.375 0 C-5.88418213 -1.46981805 -3.60851044 -0.98413921 0 0 Z " fill="#060403" transform="translate(268,283)"/>
<path d="M0 0 C2 1.625 2 1.625 3 4 C2.87988224 7.42335626 2.60726153 9.95416069 0.875 12.9375 C-2.22289358 14.69297303 -4.52844534 14.48723574 -8 14 C-10.5 11.9375 -10.5 11.9375 -12 9 C-12 5.19715329 -11.7968187 2.98069994 -9.375 0 C-5.88418213 -1.46981805 -3.60851044 -0.98413921 0 0 Z " fill="#060403" transform="translate(238,283)"/>
<path d="M0 0 C0.99 0.33 1.98 0.66 3 1 C2.236875 1.70125 1.47375 2.4025 0.6875 3.125 C-3.74473212 7.86645761 -5.35143077 11.83769768 -5.26367188 18.21484375 C-5.23853516 18.92769531 -5.21339844 19.64054687 -5.1875 20.375 C-5.17396484 21.11105469 -5.16042969 21.84710938 -5.14648438 22.60546875 C-5.11144869 24.40396743 -5.05765288 26.20208422 -5 28 C-8 26 -8 26 -8.65625 23.73828125 C-10.24262083 11.10139543 -10.24262083 11.10139543 -7.5078125 6.4765625 C-5.21570418 3.84206455 -3.14222805 1.57111402 0 0 Z " fill="#F4D62F" transform="translate(314,103)"/>
<path d="M0 0 C1.32 0.99 2.64 1.98 4 3 C3.46246904 9.18160604 1.45417612 14.326858 -1 20 C-1.99 20 -2.98 20 -4 20 C-3.28786282 15.50593041 -2.40228575 11.07140387 -1.4375 6.625 C-1.16808594 5.37976563 -0.89867187 4.13453125 -0.62109375 2.8515625 C-0.41613281 1.91054687 -0.21117187 0.96953125 0 0 Z " fill="#F4D630" transform="translate(354,74)"/>
</svg>
